{"accessors" : [{"bufferView" : 0, "byteOffset" : 0, "componentType" : 5123, "count" : 3924, "type" : "SCALAR", "max" : [3923], "min" : [0]}, {"bufferView" : 1, "byteOffset" : 0, "componentType" : 5126, "count" : 3924, "type" : "VEC3", "max" : [1.25, 2.5, 1.75], "min" : [-1.25, -2.5, 0.75], "name" : "POSITION"}, {"bufferView" : 1, "byteOffset" : 12, "componentType" : 5126, "count" : 3924, "type" : "VEC3", "max" : [0.3803921639919281, 0.40392157435417175, 0.4156862795352936], "min" : [0.3803921639919281, 0.40392157435417175, 0.4156862795352936], "name" : "COLOR_0"}], "asset" : {"generator" : "Aspose.3D 21.10", "version" : "2.0"}, "buffers" : [{"uri" : "data:application/octet-stream;base64,", "byteLength" : 102032}], "bufferViews" : [{"buffer" : 0, "byteOffset" : 0, "byteLength" : 7848, "target" : 34963}, {"buffer" : 0, "byteOffset" : 7852, "byteLength" : 94176, "byteStride" : 24, "target" : 34962}], "materials" : [{"name" : "lambert2SG.001", "pbrMetallicRoughness" : {"baseColorFactor" : [1, 1, 1, 1], "metallicFactor" : 0.5, "roughnessFactor" : 0.5}, "emissiveFactor" : [0, 0, 0], "alphaMode" : "OPAQUE", "doubleSided" : false}], "meshes" : [{"primitives" : [{"attributes" : {"POSITION" : 1, "COLOR_0" : 2}, "indices" : 0, "material" : 0, "mode" : 4}]}], "nodes" : [{"mesh" : 0, "name" : "Mesh_Mesh_head_geo.001_lambert2SG.001"}, {"children" : [0], "matrix" : [1, 0, 0, 0, 0, 2.220446049250313E-16, -1, 0, 0, 1, 2.220446049250313E-16, 0, 0, 0, 0, 1]}], "scene" : 0, "scenes" : [{"nodes" : [1]}]}