{"accessors" : [{"bufferView" : 0, "byteOffset" : 0, "componentType" : 5123, "count" : 3420, "type" : "SCALAR", "max" : [3419], "min" : [0]}, {"bufferView" : 1, "byteOffset" : 0, "componentType" : 5126, "count" : 3420, "type" : "VEC3", "max" : [6, 16.003999710083008, 3.25], "min" : [-6.5, -10, 1], "name" : "POSITION"}, {"bufferView" : 1, "byteOffset" : 12, "componentType" : 5126, "count" : 3420, "type" : "VEC3", "max" : [0.3803921639919281, 1, 1], "min" : [0, 0.40392157435417175, 0.4156862795352936], "name" : "COLOR_0"}], "asset" : {"generator" : "Aspose.3D 21.10", "version" : "2.0"}, "buffers" : [{"uri" : "data:application/octet-stream;base64,", "byteLength" : 88928}], "bufferViews" : [{"buffer" : 0, "byteOffset" : 0, "byteLength" : 6840, "target" : 34963}, {"buffer" : 0, "byteOffset" : 6844, "byteLength" : 82080, "byteStride" : 24, "target" : 34962}], "materials" : [{"name" : "lambert2SG.001", "pbrMetallicRoughness" : {"baseColorFactor" : [1, 1, 1, 1], "metallicFactor" : 0.5, "roughnessFactor" : 0.5}, "emissiveFactor" : [0, 0, 0], "alphaMode" : "OPAQUE", "doubleSided" : false}], "meshes" : [{"primitives" : [{"attributes" : {"POSITION" : 1, "COLOR_0" : 2}, "indices" : 0, "material" : 0, "mode" : 4}]}], "nodes" : [{"mesh" : 0, "name" : "Mesh_Mesh_head_geo.001_lambert2SG.001"}, {"children" : [0], "matrix" : [1, 0, 0, 0, 0, 2.220446049250313E-16, -1, 0, 0, 1, 2.220446049250313E-16, 0, 0, 0, 0, 1]}], "scene" : 0, "scenes" : [{"nodes" : [1]}]}