<?xml version="1.1" standalone="no"?>
<!DOCTYPE svg PUBLIC "-//W3C//DTD SVG 1.1//EN"
"http://www.w3.org/Graphics/SVG/1.1/DTD/svg11.dtd">
<svg xmlns="http://www.w3.org/2000/svg" version="1.1">
	<svg viewBox="0 0 320 512" id="xmark"><path d="M310.6 361.4c12.5 12.5 12.5 32.75 0 45.25C304.4 412.9 296.2 416 288 416s-16.38-3.125-22.62-9.375L160 301.3L54.63 406.6C48.38 412.9 40.19 416 32 416S15.63 412.9 9.375 406.6c-12.5-12.5-12.5-32.75 0-45.25l105.4-105.4L9.375 150.6c-12.5-12.5-12.5-32.75 0-45.25s32.75-12.5 45.25 0L160 210.8l105.4-105.4c12.5-12.5 32.75-12.5 45.25 0s12.5 32.75 0 45.25l-105.4 105.4L310.6 361.4z" /></svg>
	<svg viewBox="0 0 512 512" id="wrench"><path d="M507.6 122.8c-2.904-12.09-18.25-16.13-27.04-7.338l-76.55 76.56l-83.1-.0002l0-83.1l76.55-76.56c8.791-8.789 4.75-24.14-7.336-27.04c-23.69-5.693-49.34-6.111-75.92 .2484c-61.45 14.7-109.4 66.9-119.2 129.3C189.8 160.8 192.3 186.7 200.1 210.1l-178.1 178.1c-28.12 28.12-28.12 73.69 0 101.8C35.16 504.1 53.56 512 71.1 512s36.84-7.031 50.91-21.09l178.1-178.1c23.46 7.736 49.31 10.24 76.17 6.004c62.41-9.84 114.6-57.8 129.3-119.2C513.7 172.1 513.3 146.5 507.6 122.8zM80 456c-13.25 0-24-10.75-24-24c0-13.26 10.75-24 24-24s24 10.74 24 24C104 445.3 93.25 456 80 456z" /></svg>
	<svg viewBox="0 0 448 512" id="plus"><path d="M432 256c0 17.69-14.33 32.01-32 32.01H256v144c0 17.69-14.33 31.99-32 31.99s-32-14.3-32-31.99v-144H48c-17.67 0-32-14.32-32-32.01s14.33-31.99 32-31.99H192v-144c0-17.69 14.33-32.01 32-32.01s32 14.32 32 32.01v144h144C417.7 224 432 238.3 432 256z" /></svg>
	<svg viewBox="0 0 448 512" id="arrow-left"><path d="M447.1 256C447.1 273.7 433.7 288 416 288H109.3l105.4 105.4c12.5 12.5 12.5 32.75 0 45.25C208.4 444.9 200.2 448 192 448s-16.38-3.125-22.62-9.375l-160-160c-12.5-12.5-12.5-32.75 0-45.25l160-160c12.5-12.5 32.75-12.5 45.25 0s12.5 32.75 0 45.25L109.3 224H416C433.7 224 447.1 238.3 447.1 256z" /></svg>
	<svg viewBox="0 0 512 512" id="image"><path d="M447.1 32h-384C28.64 32-.0091 60.65-.0091 96v320c0 35.35 28.65 64 63.1 64h384c35.35 0 64-28.65 64-64V96C511.1 60.65 483.3 32 447.1 32zM111.1 96c26.51 0 48 21.49 48 48S138.5 192 111.1 192s-48-21.49-48-48S85.48 96 111.1 96zM446.1 407.6C443.3 412.8 437.9 416 432 416H82.01c-6.021 0-11.53-3.379-14.26-8.75c-2.73-5.367-2.215-11.81 1.334-16.68l70-96C142.1 290.4 146.9 288 152 288s9.916 2.441 12.93 6.574l32.46 44.51l93.3-139.1C293.7 194.7 298.7 192 304 192s10.35 2.672 13.31 7.125l128 192C448.6 396 448.9 402.3 446.1 407.6z" /></svg>
	<svg viewBox="0 0 448 512" id="box"><path d="M50.73 58.53C58.86 42.27 75.48 32 93.67 32H208V160H0L50.73 58.53zM240 160V32H354.3C372.5 32 389.1 42.27 397.3 58.53L448 160H240zM448 416C448 451.3 419.3 480 384 480H64C28.65 480 0 451.3 0 416V192H448V416z" /></svg>
	<svg viewBox="0 0 512 512" id="puzzle-piece"><path d="M512 288c0 35.35-21.49 64-48 64c-32.43 0-31.72-32-55.64-32C394.9 320 384 330.9 384 344.4V480c0 17.67-14.33 32-32 32h-71.64C266.9 512 256 501.1 256 487.6C256 463.1 288 464.4 288 432c0-26.51-28.65-48-64-48s-64 21.49-64 48c0 32.43 32 31.72 32 55.64C192 501.1 181.1 512 167.6 512H32c-17.67 0-32-14.33-32-32v-135.6C0 330.9 10.91 320 24.36 320C48.05 320 47.6 352 80 352C106.5 352 128 323.3 128 288S106.5 223.1 80 223.1c-32.43 0-31.72 32-55.64 32C10.91 255.1 0 245.1 0 231.6v-71.64c0-17.67 14.33-31.1 32-31.1h135.6C181.1 127.1 192 117.1 192 103.6c0-23.69-32-23.24-32-55.64c0-26.51 28.65-47.1 64-47.1s64 21.49 64 47.1c0 32.43-32 31.72-32 55.64c0 13.45 10.91 24.36 24.36 24.36H352c17.67 0 32 14.33 32 31.1v71.64c0 13.45 10.91 24.36 24.36 24.36c23.69 0 23.24-32 55.64-32C490.5 223.1 512 252.7 512 288z" /></svg>
	<svg viewBox="0 0 576 512" id="keyboard"><path d="M512 448H64c-35.35 0-64-28.65-64-64V128c0-35.35 28.65-64 64-64h448c35.35 0 64 28.65 64 64v256C576 419.3 547.3 448 512 448zM128 180v-40C128 133.4 122.6 128 116 128h-40C69.38 128 64 133.4 64 140v40C64 186.6 69.38 192 76 192h40C122.6 192 128 186.6 128 180zM224 180v-40C224 133.4 218.6 128 212 128h-40C165.4 128 160 133.4 160 140v40C160 186.6 165.4 192 172 192h40C218.6 192 224 186.6 224 180zM320 180v-40C320 133.4 314.6 128 308 128h-40C261.4 128 256 133.4 256 140v40C256 186.6 261.4 192 268 192h40C314.6 192 320 186.6 320 180zM416 180v-40C416 133.4 410.6 128 404 128h-40C357.4 128 352 133.4 352 140v40C352 186.6 357.4 192 364 192h40C410.6 192 416 186.6 416 180zM512 180v-40C512 133.4 506.6 128 500 128h-40C453.4 128 448 133.4 448 140v40C448 186.6 453.4 192 460 192h40C506.6 192 512 186.6 512 180zM128 276v-40C128 229.4 122.6 224 116 224h-40C69.38 224 64 229.4 64 236v40C64 282.6 69.38 288 76 288h40C122.6 288 128 282.6 128 276zM224 276v-40C224 229.4 218.6 224 212 224h-40C165.4 224 160 229.4 160 236v40C160 282.6 165.4 288 172 288h40C218.6 288 224 282.6 224 276zM320 276v-40C320 229.4 314.6 224 308 224h-40C261.4 224 256 229.4 256 236v40C256 282.6 261.4 288 268 288h40C314.6 288 320 282.6 320 276zM416 276v-40C416 229.4 410.6 224 404 224h-40C357.4 224 352 229.4 352 236v40C352 282.6 357.4 288 364 288h40C410.6 288 416 282.6 416 276zM512 276v-40C512 229.4 506.6 224 500 224h-40C453.4 224 448 229.4 448 236v40C448 282.6 453.4 288 460 288h40C506.6 288 512 282.6 512 276zM128 372v-40C128 325.4 122.6 320 116 320h-40C69.38 320 64 325.4 64 332v40C64 378.6 69.38 384 76 384h40C122.6 384 128 378.6 128 372zM416 372v-40C416 325.4 410.6 320 404 320h-232C165.4 320 160 325.4 160 332v40C160 378.6 165.4 384 172 384h232C410.6 384 416 378.6 416 372zM512 372v-40C512 325.4 506.6 320 500 320h-40C453.4 320 448 325.4 448 332v40C448 378.6 453.4 384 460 384h40C506.6 384 512 378.6 512 372z" /></svg>
	<svg viewBox="0 0 512 512" id="gear"><path d="M495.9 166.6C499.2 175.2 496.4 184.9 489.6 191.2L446.3 230.6C447.4 238.9 448 247.4 448 256C448 264.6 447.4 273.1 446.3 281.4L489.6 320.8C496.4 327.1 499.2 336.8 495.9 345.4C491.5 357.3 486.2 368.8 480.2 379.7L475.5 387.8C468.9 398.8 461.5 409.2 453.4 419.1C447.4 426.2 437.7 428.7 428.9 425.9L373.2 408.1C359.8 418.4 344.1 427 329.2 433.6L316.7 490.7C314.7 499.7 307.7 506.1 298.5 508.5C284.7 510.8 270.5 512 255.1 512C241.5 512 227.3 510.8 213.5 508.5C204.3 506.1 197.3 499.7 195.3 490.7L182.8 433.6C167 427 152.2 418.4 138.8 408.1L83.14 425.9C74.3 428.7 64.55 426.2 58.63 419.1C50.52 409.2 43.12 398.8 36.52 387.8L31.84 379.7C25.77 368.8 20.49 357.3 16.06 345.4C12.82 336.8 15.55 327.1 22.41 320.8L65.67 281.4C64.57 273.1 64 264.6 64 256C64 247.4 64.57 238.9 65.67 230.6L22.41 191.2C15.55 184.9 12.82 175.3 16.06 166.6C20.49 154.7 25.78 143.2 31.84 132.3L36.51 124.2C43.12 113.2 50.52 102.8 58.63 92.95C64.55 85.8 74.3 83.32 83.14 86.14L138.8 103.9C152.2 93.56 167 84.96 182.8 78.43L195.3 21.33C197.3 12.25 204.3 5.04 213.5 3.51C227.3 1.201 241.5 0 256 0C270.5 0 284.7 1.201 298.5 3.51C307.7 5.04 314.7 12.25 316.7 21.33L329.2 78.43C344.1 84.96 359.8 93.56 373.2 103.9L428.9 86.14C437.7 83.32 447.4 85.8 453.4 92.95C461.5 102.8 468.9 113.2 475.5 124.2L480.2 132.3C486.2 143.2 491.5 154.7 495.9 166.6V166.6zM256 336C300.2 336 336 300.2 336 255.1C336 211.8 300.2 175.1 256 175.1C211.8 175.1 176 211.8 176 255.1C176 300.2 211.8 336 256 336z" /></svg>
	<svg viewBox="0 0 448 512" id="flask"><path d="M437.2 403.5L319.1 215L319.1 64h7.1c13.25 0 23.1-10.75 23.1-24l-.0002-16c0-13.25-10.75-24-23.1-24H120C106.8 0 96.01 10.75 96.01 24l-.0002 16c0 13.25 10.75 24 23.1 24h7.1L128 215l-117.2 188.5C-18.48 450.6 15.27 512 70.89 512h306.2C432.7 512 466.5 450.5 437.2 403.5zM137.1 320l48.15-77.63C189.8 237.3 191.9 230.8 191.9 224l.0651-160h63.99l-.06 160c0 6.875 2.25 13.25 5.875 18.38L309.9 320H137.1z" /></svg>
	<svg viewBox="0 0 448 512" id="lock"><path d="M80 192V144C80 64.47 144.5 0 224 0C303.5 0 368 64.47 368 144V192H384C419.3 192 448 220.7 448 256V448C448 483.3 419.3 512 384 512H64C28.65 512 0 483.3 0 448V256C0 220.7 28.65 192 64 192H80zM144 192H304V144C304 99.82 268.2 64 224 64C179.8 64 144 99.82 144 144V192z" /></svg>
	<svg viewBox="0 0 512 512" id="circle-up"><path d="M256 0C114.6 0 0 114.6 0 256s114.6 256 256 256c141.4 0 256-114.6 256-256S397.4 0 256 0zM382.8 246.1C380.3 252.1 374.5 256 368 256h-64v96c0 17.67-14.33 32-32 32h-32c-17.67 0-32-14.33-32-32V256h-64C137.5 256 131.7 252.1 129.2 246.1C126.7 240.1 128.1 233.3 132.7 228.7l112-112c6.248-6.248 16.38-6.248 22.62 0l112 112C383.9 233.3 385.3 240.1 382.8 246.1z" /></svg>
	<svg viewBox="0 0 448 512" id="trash"><path d="M135.2 17.69C140.6 6.848 151.7 0 163.8 0H284.2C296.3 0 307.4 6.848 312.8 17.69L320 32H416C433.7 32 448 46.33 448 64C448 81.67 433.7 96 416 96H32C14.33 96 0 81.67 0 64C0 46.33 14.33 32 32 32H128L135.2 17.69zM394.8 466.1C393.2 492.3 372.3 512 346.9 512H101.1C75.75 512 54.77 492.3 53.19 466.1L31.1 128H416L394.8 466.1z" /></svg>
	<svg viewBox="0 0 512 512" id="download"><path d="M480 352h-133.5l-45.25 45.25C289.2 409.3 273.1 416 256 416s-33.16-6.656-45.25-18.75L165.5 352H32c-17.67 0-32 14.33-32 32v96c0 17.67 14.33 32 32 32h448c17.67 0 32-14.33 32-32v-96C512 366.3 497.7 352 480 352zM432 456c-13.2 0-24-10.8-24-24c0-13.2 10.8-24 24-24s24 10.8 24 24C456 445.2 445.2 456 432 456zM233.4 374.6C239.6 380.9 247.8 384 256 384s16.38-3.125 22.62-9.375l128-128c12.49-12.5 12.49-32.75 0-45.25c-12.5-12.5-32.76-12.5-45.25 0L288 274.8V32c0-17.67-14.33-32-32-32C238.3 0 224 14.33 224 32v242.8L150.6 201.4c-12.49-12.5-32.75-12.5-45.25 0c-12.49 12.5-12.49 32.75 0 45.25L233.4 374.6z" /></svg>
	<svg viewBox="0 0 448 512" id="arrow-right"><path d="M438.6 278.6l-160 160C272.4 444.9 264.2 448 256 448s-16.38-3.125-22.62-9.375c-12.5-12.5-12.5-32.75 0-45.25L338.8 288H32C14.33 288 .0016 273.7 .0016 256S14.33 224 32 224h306.8l-105.4-105.4c-12.5-12.5-12.5-32.75 0-45.25s32.75-12.5 45.25 0l160 160C451.1 245.9 451.1 266.1 438.6 278.6z" /></svg>
	<svg viewBox="0 0 512 512" id="circle-plus"><path d="M0 256C0 114.6 114.6 0 256 0C397.4 0 512 114.6 512 256C512 397.4 397.4 512 256 512C114.6 512 0 397.4 0 256zM256 368C269.3 368 280 357.3 280 344V280H344C357.3 280 368 269.3 368 256C368 242.7 357.3 232 344 232H280V168C280 154.7 269.3 144 256 144C242.7 144 232 154.7 232 168V232H168C154.7 232 144 242.7 144 256C144 269.3 154.7 280 168 280H232V344C232 357.3 242.7 368 256 368z" /></svg>
	<svg viewBox="0 0 384 512" id="play"><path d="M361 215C375.3 223.8 384 239.3 384 256C384 272.7 375.3 288.2 361 296.1L73.03 472.1C58.21 482 39.66 482.4 24.52 473.9C9.377 465.4 0 449.4 0 432V80C0 62.64 9.377 46.63 24.52 38.13C39.66 29.64 58.21 29.99 73.03 39.04L361 215z"/></svg>
	<svg viewBox="0 0 512 512" id="arrows-rotate"><path d="M464 16c-17.67 0-32 14.31-32 32v74.09C392.1 66.52 327.4 32 256 32C161.5 32 78.59 92.34 49.58 182.2c-5.438 16.81 3.797 34.88 20.61 40.28c16.89 5.5 34.88-3.812 40.3-20.59C130.9 138.5 189.4 96 256 96c50.5 0 96.26 24.55 124.4 64H336c-17.67 0-32 14.31-32 32s14.33 32 32 32h128c17.67 0 32-14.31 32-32V48C496 30.31 481.7 16 464 16zM441.8 289.6c-16.92-5.438-34.88 3.812-40.3 20.59C381.1 373.5 322.6 416 256 416c-50.5 0-96.25-24.55-124.4-64H176c17.67 0 32-14.31 32-32s-14.33-32-32-32h-128c-17.67 0-32 14.31-32 32v144c0 17.69 14.33 32 32 32s32-14.31 32-32v-74.09C119.9 445.5 184.6 480 255.1 480c94.45 0 177.4-60.34 206.4-150.2C467.9 313 458.6 294.1 441.8 289.6z"/></svg>
	<svg viewBox="0 0 512 512" id="pencil"><path d="M421.7 220.3L188.5 453.4L154.6 419.5L158.1 416H112C103.2 416 96 408.8 96 400V353.9L92.51 357.4C87.78 362.2 84.31 368 82.42 374.4L59.44 452.6L137.6 429.6C143.1 427.7 149.8 424.2 154.6 419.5L188.5 453.4C178.1 463.8 165.2 471.5 151.1 475.6L30.77 511C22.35 513.5 13.24 511.2 7.03 504.1C.8198 498.8-1.502 489.7 .976 481.2L36.37 360.9C40.53 346.8 48.16 333.9 58.57 323.5L291.7 90.34L421.7 220.3zM492.7 58.75C517.7 83.74 517.7 124.3 492.7 149.3L444.3 197.7L314.3 67.72L362.7 19.32C387.7-5.678 428.3-5.678 453.3 19.32L492.7 58.75z"/></svg>
	<svg viewBox="0 0 512 512" id="upload"><path d="M105.4 182.6c12.5 12.49 32.76 12.5 45.25 .001L224 109.3V352c0 17.67 14.33 32 32 32c17.67 0 32-14.33 32-32V109.3l73.38 73.38c12.49 12.49 32.75 12.49 45.25-.001c12.49-12.49 12.49-32.75 0-45.25l-128-128C272.4 3.125 264.2 0 256 0S239.6 3.125 233.4 9.375L105.4 137.4C92.88 149.9 92.88 170.1 105.4 182.6zM480 352h-160c0 35.35-28.65 64-64 64s-64-28.65-64-64H32c-17.67 0-32 14.33-32 32v96c0 17.67 14.33 32 32 32h448c17.67 0 32-14.33 32-32v-96C512 366.3 497.7 352 480 352zM432 456c-13.2 0-24-10.8-24-24c0-13.2 10.8-24 24-24s24 10.8 24 24C456 445.2 445.2 456 432 456z"/></svg>
	<svg viewBox="0 0 384 512" id="location-dot"><path d="M168.3 499.2C116.1 435 0 279.4 0 192C0 85.96 85.96 0 192 0C298 0 384 85.96 384 192C384 279.4 267 435 215.7 499.2C203.4 514.5 180.6 514.5 168.3 499.2H168.3zM192 256C227.3 256 256 227.3 256 192C256 156.7 227.3 128 192 128C156.7 128 128 156.7 128 192C128 227.3 156.7 256 192 256z"/></svg>
	<svg viewBox="0 0 512 512" id="rocket-launch"><path d="M117.8 127.1H207C286.9-3.743 409.5-8.542 483.9 5.255C495.6 7.41 504.6 16.45 506.7 28.07C520.5 102.5 515.7 225.1 384 304.1V394.2C384 419.7 370.6 443.2 348.7 456.2L260.2 508.6C252.8 513 243.6 513.1 236.1 508.9C228.6 504.6 224 496.6 224 488V373.3C224 350.6 215 328.1 199 312.1C183 296.1 161.4 288 138.7 288H24C15.38 288 7.414 283.4 3.146 275.9C-1.123 268.4-1.042 259.2 3.357 251.8L55.83 163.3C68.79 141.4 92.33 127.1 117.8 127.1H117.8zM384 88C361.9 88 344 105.9 344 128C344 150.1 361.9 168 384 168C406.1 168 424 150.1 424 128C424 105.9 406.1 88 384 88zM166.5 470C117 519.5 .4762 511.5 .4762 511.5C.4762 511.5-7.516 394.1 41.98 345.5C76.37 311.1 132.1 311.1 166.5 345.5C200.9 379.9 200.9 435.6 166.5 470zM119.8 392.2C108.3 380.8 89.81 380.8 78.38 392.2C61.92 408.7 64.58 447.4 64.58 447.4C64.58 447.4 103.3 450.1 119.8 433.6C131.2 422.2 131.2 403.7 119.8 392.2z"/></svg>
	<svg viewBox="0 0 576 512" id="money-check-dollar"><path d="M512 64C547.3 64 576 92.65 576 128V384C576 419.3 547.3 448 512 448H64C28.65 448 0 419.3 0 384V128C0 92.65 28.65 64 64 64H512zM272 192C263.2 192 256 199.2 256 208C256 216.8 263.2 224 272 224H496C504.8 224 512 216.8 512 208C512 199.2 504.8 192 496 192H272zM272 320H496C504.8 320 512 312.8 512 304C512 295.2 504.8 288 496 288H272C263.2 288 256 295.2 256 304C256 312.8 263.2 320 272 320zM164.1 160C164.1 148.9 155.1 139.9 143.1 139.9C132.9 139.9 123.9 148.9 123.9 160V166C118.3 167.2 112.1 168.9 108 171.1C93.06 177.9 80.07 190.5 76.91 208.8C75.14 219 76.08 228.9 80.32 237.8C84.47 246.6 91 252.8 97.63 257.3C109.2 265.2 124.5 269.8 136.2 273.3L138.4 273.9C152.4 278.2 161.8 281.3 167.7 285.6C170.2 287.4 171.1 288.8 171.4 289.7C171.8 290.5 172.4 292.3 171.7 296.3C171.1 299.8 169.2 302.8 163.7 305.1C157.6 307.7 147.7 309 134.9 307C128.9 306 118.2 302.4 108.7 299.2C106.5 298.4 104.3 297.7 102.3 297C91.84 293.5 80.51 299.2 77.02 309.7C73.53 320.2 79.2 331.5 89.68 334.1C90.89 335.4 92.39 335.9 94.11 336.5C101.1 339.2 114.4 343.4 123.9 345.6V352C123.9 363.1 132.9 372.1 143.1 372.1C155.1 372.1 164.1 363.1 164.1 352V346.5C169.4 345.5 174.6 343.1 179.4 341.9C195.2 335.2 207.8 322.2 211.1 303.2C212.9 292.8 212.1 282.8 208.1 273.7C204.2 264.7 197.9 258.1 191.2 253.3C179.1 244.4 162.9 239.6 150.8 235.9L149.1 235.7C135.8 231.4 126.2 228.4 120.1 224.2C117.5 222.4 116.7 221.2 116.5 220.7C116.3 220.3 115.7 219.1 116.3 215.7C116.7 213.7 118.2 210.4 124.5 207.6C130.1 204.7 140.9 203.1 153.1 204.1C157.5 205.7 171 208.3 174.9 209.3C185.5 212.2 196.5 205.8 199.3 195.1C202.2 184.5 195.8 173.5 185.1 170.7C180.7 169.5 170.7 167.5 164.1 166.3L164.1 160z"/></svg>
	<svg viewBox="0 0 512 512" id="planet-ringed"><path d="M502.9 9.049c-23.5-23.5-88.26 .0789-167.1 54.84c-75.51-31.25-165.5-16.3-226.9 44.95c-61.26 61.38-76.21 151.4-44.95 226.9c-54.76 78.89-78.34 143.6-54.84 167.1c37.13 37.25 177.9-43.15 314.3-179.5S540.2 46.18 502.9 9.049zM346.5 346.5c-38.13 38.13-84.14 78.89-130.8 113.6c68.13 13.38 138.4-8.001 187.4-57.13c49.01-49.01 70.38-119.4 56.88-187.4C423.9 264.2 382.1 310.9 346.5 346.5z"/></svg>
	<svg viewBox="0 0 512 512" id="earth-americas"><path d="M512 256C512 397.4 397.4 512 256 512C114.6 512 0 397.4 0 256C0 114.6 114.6 0 256 0C397.4 0 512 114.6 512 256zM57.71 192.1L67.07 209.4C75.36 223.9 88.99 234.6 105.1 239.2L162.1 255.7C180.2 260.6 192 276.3 192 294.2V334.1C192 345.1 198.2 355.1 208 359.1C217.8 364.9 224 374.9 224 385.9V424.9C224 440.5 238.9 451.7 253.9 447.4C270.1 442.8 282.5 429.1 286.6 413.7L289.4 402.5C293.6 385.6 304.6 371.1 319.7 362.4L327.8 357.8C342.8 349.3 352 333.4 352 316.1V307.9C352 295.1 346.9 282.9 337.9 273.9L334.1 270.1C325.1 261.1 312.8 255.1 300.1 255.1H256.1C245.9 255.1 234.9 253.1 225.2 247.6L190.7 227.8C186.4 225.4 183.1 221.4 181.6 216.7C178.4 207.1 182.7 196.7 191.7 192.1L197.7 189.2C204.3 185.9 211.9 185.3 218.1 187.7L242.2 195.4C250.3 198.1 259.3 195 264.1 187.9C268.8 180.8 268.3 171.5 262.9 165L249.3 148.8C239.3 136.8 239.4 119.3 249.6 107.5L265.3 89.12C274.1 78.85 275.5 64.16 268.8 52.42L266.4 48.26C262.1 48.09 259.5 48 256 48C163.1 48 84.4 108.9 57.71 192.1L57.71 192.1zM437.6 154.5L412 164.8C396.3 171.1 388.2 188.5 393.5 204.6L410.4 255.3C413.9 265.7 422.4 273.6 433 276.3L462.2 283.5C463.4 274.5 464 265.3 464 256C464 219.2 454.4 184.6 437.6 154.5H437.6z"/></svg>
	<svg viewBox="0 0 512 512" id="earth-oceania"><path d="M0 256C0 114.6 114.6 0 256 0C397.4 0 512 114.6 512 256C512 397.4 397.4 512 256 512C114.6 512 0 397.4 0 256zM215.5 360.6L240.9 377C247.1 381.6 256.2 384 264.6 384C278 384 290.7 377.8 298.1 367.2L311 351.8C316.8 344.4 320 335.2 320 325.8C320 316.4 316.8 307.2 311 299.8L293.1 276.9C288.3 270.7 284.4 263.1 281.6 256.7L271.5 230.8C269.9 226.7 265.9 224 261.5 224C258 224 254.8 225.6 252.8 228.4L242.4 242.6C237.7 248.1 229.7 252.1 221.9 250.5C218.7 249.8 215.8 247.1 213.8 245.4L209.3 239.3C202.1 229.7 190.7 224 178.7 224C166.7 224 155.3 229.7 148.1 239.3L142.8 246.3C141.3 248.4 139.2 250 136.9 251.1L101.6 267.9C81.08 277.7 72.8 302.6 83.37 322.7L86.65 328.9C95.67 346.1 115.7 354.3 134.1 348.4L149.5 343.6C156 341.5 163.1 341.6 169.6 343.8L208.6 357.3C211 358.1 213.4 359.2 215.5 360.6H215.5zM273.8 142.5C264.3 132.1 250.8 128.9 237.6 131.5L199.1 139.2C183.8 142.3 181.5 163.2 195.7 169.5L238.5 188.6C243.7 190.8 249.2 192 254.8 192H284.7C298.9 192 306.1 174.8 296 164.7L273.8 142.5zM264 448H280C288.8 448 296 440.8 296 432C296 423.2 288.8 416 280 416H264C255.2 416 248 423.2 248 432C248 440.8 255.2 448 264 448zM431.2 298.9C428.4 290.6 419.3 286 410.9 288.8C402.6 291.6 398 300.7 400.8 309.1L408.8 333.1C411.6 341.4 420.7 345.1 429.1 343.2C437.4 340.4 441.1 331.3 439.2 322.9L431.2 298.9zM411.3 379.3C417.6 373.1 417.6 362.9 411.3 356.7C405.1 350.4 394.9 350.4 388.7 356.7L356.7 388.7C350.4 394.9 350.4 405.1 356.7 411.3C362.9 417.6 373.1 417.6 379.3 411.3L411.3 379.3z"/></svg>
</svg>